<svg xmlns="http://www.w3.org/2000/svg" width="225" height="225" viewBox="0 0 292 292"><defs><clipPath id="clip-path"><circle id="Ellipse_2808" cx="146" cy="146" r="146" fill="#f20070" stroke="#707070" stroke-width="1" data-name="Ellipse 2808" transform="translate(1224.902 1195)"/></clipPath></defs><g id="Mask_Group_124" clip-path="url(#clip-path)" data-name="Mask Group 124" transform="translate(-1224.902 -1195)"><g id="Group_4133" fill="#f20070" data-name="Group 4133" transform="translate(1227.665 1199.145)"><g id="Group_4129" data-name="Group 4129"><circle id="Ellipse_2664" cx="3.5" cy="3.5" r="3.5" data-name="Ellipse 2664" transform="translate(.237 -.145)"/><ellipse id="Ellipse_2665" cx="2.5" cy="3" data-name="Ellipse 2665" rx="2.5" ry="3" transform="translate(.237 25.855)"/><circle id="Ellipse_2666" cx="3.5" cy="3.5" r="3.5" data-name="Ellipse 2666" transform="translate(.237 49.855)"/><circle id="Ellipse_2667" cx="3.5" cy="3.5" r="3.5" data-name="Ellipse 2667" transform="translate(.237 75.855)"/><circle id="Ellipse_2668" cx="3.5" cy="3.5" r="3.5" data-name="Ellipse 2668" transform="translate(.237 126.855)"/><circle id="Ellipse_2669" cx="3.5" cy="3.5" r="3.5" data-name="Ellipse 2669" transform="translate(25.237 -.145)"/><ellipse id="Ellipse_2670" cx="2.5" cy="3" data-name="Ellipse 2670" rx="2.5" ry="3" transform="translate(25.237 25.855)"/><circle id="Ellipse_2671" cx="3.5" cy="3.5" r="3.5" data-name="Ellipse 2671" transform="translate(25.237 49.855)"/><circle id="Ellipse_2672" cx="3.5" cy="3.5" r="3.5" data-name="Ellipse 2672" transform="translate(25.237 75.855)"/><circle id="Ellipse_2673" cx="3.5" cy="3.5" r="3.5" data-name="Ellipse 2673" transform="translate(25.237 126.855)"/><circle id="Ellipse_2674" cx="3.5" cy="3.5" r="3.5" data-name="Ellipse 2674" transform="translate(51.237 -.145)"/><ellipse id="Ellipse_2675" cx="2.5" cy="3" data-name="Ellipse 2675" rx="2.5" ry="3" transform="translate(51.237 25.855)"/><circle id="Ellipse_2676" cx="3.5" cy="3.5" r="3.5" data-name="Ellipse 2676" transform="translate(51.237 49.855)"/><circle id="Ellipse_2677" cx="3.5" cy="3.5" r="3.5" data-name="Ellipse 2677" transform="translate(51.237 75.855)"/><circle id="Ellipse_2678" cx="3.5" cy="3.5" r="3.5" data-name="Ellipse 2678" transform="translate(51.237 126.855)"/><circle id="Ellipse_2679" cx="3" cy="3" r="3" data-name="Ellipse 2679" transform="translate(77.237 -.145)"/><circle id="Ellipse_2680" cx="3" cy="3" r="3" data-name="Ellipse 2680" transform="translate(77.237 25.855)"/><ellipse id="Ellipse_2681" cx="3" cy="2.5" data-name="Ellipse 2681" rx="3" ry="2.5" transform="translate(77.237 49.855)"/><circle id="Ellipse_2682" cx="3" cy="3" r="3" data-name="Ellipse 2682" transform="translate(77.237 75.855)"/><circle id="Ellipse_2683" cx="3" cy="3" r="3" data-name="Ellipse 2683" transform="translate(77.237 126.855)"/><ellipse id="Ellipse_2684" cx="2.5" cy="3" data-name="Ellipse 2684" rx="2.5" ry="3" transform="translate(127.237 -.145)"/><ellipse id="Ellipse_2685" cx="2.5" cy="3" data-name="Ellipse 2685" rx="2.5" ry="3" transform="translate(127.237 25.855)"/><circle id="Ellipse_2686" cx="2.5" cy="2.5" r="2.5" data-name="Ellipse 2686" transform="translate(127.237 49.855)"/><ellipse id="Ellipse_2687" cx="2.5" cy="3" data-name="Ellipse 2687" rx="2.5" ry="3" transform="translate(127.237 75.855)"/><ellipse id="Ellipse_2688" cx="2.5" cy="3" data-name="Ellipse 2688" rx="2.5" ry="3" transform="translate(127.237 126.855)"/><circle id="Ellipse_2689" cx="3.5" cy="3.5" r="3.5" data-name="Ellipse 2689" transform="translate(102.237 -.145)"/><circle id="Ellipse_2690" cx="3" cy="3" r="3" data-name="Ellipse 2690" transform="translate(102.237 25.855)"/><circle id="Ellipse_2691" cx="3.5" cy="3.5" r="3.5" data-name="Ellipse 2691" transform="translate(102.237 49.855)"/><circle id="Ellipse_2692" cx="3.5" cy="3.5" r="3.5" data-name="Ellipse 2692" transform="translate(102.237 75.855)"/><circle id="Ellipse_2693" cx="3.5" cy="3.5" r="3.5" data-name="Ellipse 2693" transform="translate(102.237 126.855)"/><circle id="Ellipse_2694" cx="3.5" cy="3.5" r="3.5" data-name="Ellipse 2694" transform="translate(.237 100.855)"/><circle id="Ellipse_2695" cx="3.5" cy="3.5" r="3.5" data-name="Ellipse 2695" transform="translate(25.237 100.855)"/><circle id="Ellipse_2696" cx="3.5" cy="3.5" r="3.5" data-name="Ellipse 2696" transform="translate(51.237 100.855)"/><circle id="Ellipse_2697" cx="3" cy="3" r="3" data-name="Ellipse 2697" transform="translate(77.237 100.855)"/><ellipse id="Ellipse_2698" cx="2.5" cy="3" data-name="Ellipse 2698" rx="2.5" ry="3" transform="translate(127.237 100.855)"/><circle id="Ellipse_2699" cx="3.5" cy="3.5" r="3.5" data-name="Ellipse 2699" transform="translate(102.237 100.855)"/></g><g id="Group_4130" data-name="Group 4130" transform="translate(151.995)"><circle id="Ellipse_2700" cx="3.5" cy="3.5" r="3.5" data-name="Ellipse 2700" transform="translate(.242 -.145)"/><ellipse id="Ellipse_2701" cx="2.5" cy="3" data-name="Ellipse 2701" rx="2.5" ry="3" transform="translate(.242 25.855)"/><circle id="Ellipse_2702" cx="3.5" cy="3.5" r="3.5" data-name="Ellipse 2702" transform="translate(.242 49.855)"/><circle id="Ellipse_2703" cx="3.5" cy="3.5" r="3.5" data-name="Ellipse 2703" transform="translate(.242 75.855)"/><circle id="Ellipse_2704" cx="3.5" cy="3.5" r="3.5" data-name="Ellipse 2704" transform="translate(.242 126.855)"/><circle id="Ellipse_2705" cx="3.5" cy="3.5" r="3.5" data-name="Ellipse 2705" transform="translate(25.242 -.145)"/><ellipse id="Ellipse_2706" cx="2.5" cy="3" data-name="Ellipse 2706" rx="2.5" ry="3" transform="translate(25.242 25.855)"/><circle id="Ellipse_2707" cx="3.5" cy="3.5" r="3.5" data-name="Ellipse 2707" transform="translate(25.242 49.855)"/><circle id="Ellipse_2708" cx="3.5" cy="3.5" r="3.5" data-name="Ellipse 2708" transform="translate(25.242 75.855)"/><circle id="Ellipse_2709" cx="3.5" cy="3.5" r="3.5" data-name="Ellipse 2709" transform="translate(25.242 126.855)"/><ellipse id="Ellipse_2710" cx="3" cy="3.5" data-name="Ellipse 2710" rx="3" ry="3.5" transform="translate(50.242 -.145)"/><ellipse id="Ellipse_2711" cx="2.5" cy="3" data-name="Ellipse 2711" rx="2.5" ry="3" transform="translate(50.242 25.855)"/><ellipse id="Ellipse_2712" cx="3" cy="3.5" data-name="Ellipse 2712" rx="3" ry="3.5" transform="translate(50.242 49.855)"/><ellipse id="Ellipse_2713" cx="3" cy="3.5" data-name="Ellipse 2713" rx="3" ry="3.5" transform="translate(50.242 75.855)"/><ellipse id="Ellipse_2714" cx="3" cy="3.5" data-name="Ellipse 2714" rx="3" ry="3.5" transform="translate(50.242 126.855)"/><circle id="Ellipse_2715" cx="3.5" cy="3.5" r="3.5" data-name="Ellipse 2715" transform="translate(76.242 -.145)"/><ellipse id="Ellipse_2716" cx="2.5" cy="3" data-name="Ellipse 2716" rx="2.5" ry="3" transform="translate(76.242 25.855)"/><circle id="Ellipse_2717" cx="3.5" cy="3.5" r="3.5" data-name="Ellipse 2717" transform="translate(76.242 49.855)"/><circle id="Ellipse_2718" cx="3.5" cy="3.5" r="3.5" data-name="Ellipse 2718" transform="translate(76.242 75.855)"/><circle id="Ellipse_2719" cx="3.5" cy="3.5" r="3.5" data-name="Ellipse 2719" transform="translate(76.242 126.855)"/><circle id="Ellipse_2720" cx="3.5" cy="3.5" r="3.5" data-name="Ellipse 2720" transform="translate(125.242 -.145)"/><circle id="Ellipse_2721" cx="3" cy="3" r="3" data-name="Ellipse 2721" transform="translate(125.242 25.855)"/><circle id="Ellipse_2722" cx="3.5" cy="3.5" r="3.5" data-name="Ellipse 2722" transform="translate(125.242 49.855)"/><circle id="Ellipse_2723" cx="3.5" cy="3.5" r="3.5" data-name="Ellipse 2723" transform="translate(125.242 75.855)"/><circle id="Ellipse_2724" cx="3.5" cy="3.5" r="3.5" data-name="Ellipse 2724" transform="translate(125.242 126.855)"/><circle id="Ellipse_2725" cx="3" cy="3" r="3" data-name="Ellipse 2725" transform="translate(102.242 -.145)"/><circle id="Ellipse_2726" cx="3" cy="3" r="3" data-name="Ellipse 2726" transform="translate(102.242 25.855)"/><ellipse id="Ellipse_2727" cx="3" cy="2.5" data-name="Ellipse 2727" rx="3" ry="2.5" transform="translate(102.242 49.855)"/><circle id="Ellipse_2728" cx="3" cy="3" r="3" data-name="Ellipse 2728" transform="translate(102.242 75.855)"/><circle id="Ellipse_2729" cx="3" cy="3" r="3" data-name="Ellipse 2729" transform="translate(102.242 126.855)"/><circle id="Ellipse_2730" cx="3.5" cy="3.5" r="3.5" data-name="Ellipse 2730" transform="translate(.242 100.855)"/><circle id="Ellipse_2731" cx="3.5" cy="3.5" r="3.5" data-name="Ellipse 2731" transform="translate(25.242 100.855)"/><ellipse id="Ellipse_2732" cx="3" cy="3.5" data-name="Ellipse 2732" rx="3" ry="3.5" transform="translate(50.242 100.855)"/><circle id="Ellipse_2733" cx="3.5" cy="3.5" r="3.5" data-name="Ellipse 2733" transform="translate(76.242 100.855)"/><circle id="Ellipse_2734" cx="3.5" cy="3.5" r="3.5" data-name="Ellipse 2734" transform="translate(125.242 100.855)"/><circle id="Ellipse_2735" cx="3" cy="3" r="3" data-name="Ellipse 2735" transform="translate(102.242 100.855)"/></g><g id="Group_4131" data-name="Group 4131" transform="translate(0 151.995)"><ellipse id="Ellipse_2736" cx="2.5" cy="3" data-name="Ellipse 2736" rx="2.5" ry="3" transform="translate(.237 -.139)"/><circle id="Ellipse_2737" cx="3.5" cy="3.5" r="3.5" data-name="Ellipse 2737" transform="translate(.237 24.861)"/><circle id="Ellipse_2738" cx="3.5" cy="3.5" r="3.5" data-name="Ellipse 2738" transform="translate(.237 49.861)"/><circle id="Ellipse_2739" cx="3.5" cy="3.5" r="3.5" data-name="Ellipse 2739" transform="translate(.237 75.861)"/><circle id="Ellipse_2740" cx="3.5" cy="3.5" r="3.5" data-name="Ellipse 2740" transform="translate(.237 125.861)"/><ellipse id="Ellipse_2741" cx="2.5" cy="3" data-name="Ellipse 2741" rx="2.5" ry="3" transform="translate(25.237 -.139)"/><circle id="Ellipse_2742" cx="3.5" cy="3.5" r="3.5" data-name="Ellipse 2742" transform="translate(25.237 24.861)"/><circle id="Ellipse_2743" cx="3.5" cy="3.5" r="3.5" data-name="Ellipse 2743" transform="translate(25.237 49.861)"/><circle id="Ellipse_2744" cx="3.5" cy="3.5" r="3.5" data-name="Ellipse 2744" transform="translate(25.237 75.861)"/><circle id="Ellipse_2745" cx="3.5" cy="3.5" r="3.5" data-name="Ellipse 2745" transform="translate(25.237 125.861)"/><ellipse id="Ellipse_2746" cx="2.5" cy="3" data-name="Ellipse 2746" rx="2.5" ry="3" transform="translate(51.237 -.139)"/><circle id="Ellipse_2747" cx="3.5" cy="3.5" r="3.5" data-name="Ellipse 2747" transform="translate(51.237 24.861)"/><circle id="Ellipse_2748" cx="3.5" cy="3.5" r="3.5" data-name="Ellipse 2748" transform="translate(51.237 49.861)"/><circle id="Ellipse_2749" cx="3.5" cy="3.5" r="3.5" data-name="Ellipse 2749" transform="translate(51.237 75.861)"/><circle id="Ellipse_2750" cx="3.5" cy="3.5" r="3.5" data-name="Ellipse 2750" transform="translate(51.237 125.861)"/><circle id="Ellipse_2751" cx="3" cy="3" r="3" data-name="Ellipse 2751" transform="translate(77.237 -.139)"/><circle id="Ellipse_2752" cx="3" cy="3" r="3" data-name="Ellipse 2752" transform="translate(77.237 24.861)"/><ellipse id="Ellipse_2753" cx="3" cy="2.5" data-name="Ellipse 2753" rx="3" ry="2.5" transform="translate(77.237 49.861)"/><circle id="Ellipse_2754" cx="3" cy="3" r="3" data-name="Ellipse 2754" transform="translate(77.237 75.861)"/><ellipse id="Ellipse_2755" cx="3" cy="2.5" data-name="Ellipse 2755" rx="3" ry="2.5" transform="translate(77.237 125.861)"/><ellipse id="Ellipse_2756" cx="2.5" cy="3" data-name="Ellipse 2756" rx="2.5" ry="3" transform="translate(127.237 -.139)"/><ellipse id="Ellipse_2757" cx="2.5" cy="3" data-name="Ellipse 2757" rx="2.5" ry="3" transform="translate(127.237 24.861)"/><circle id="Ellipse_2758" cx="2.5" cy="2.5" r="2.5" data-name="Ellipse 2758" transform="translate(127.237 49.861)"/><ellipse id="Ellipse_2759" cx="2.5" cy="3" data-name="Ellipse 2759" rx="2.5" ry="3" transform="translate(127.237 75.861)"/><circle id="Ellipse_2760" cx="2.5" cy="2.5" r="2.5" data-name="Ellipse 2760" transform="translate(127.237 125.861)"/><circle id="Ellipse_2761" cx="3" cy="3" r="3" data-name="Ellipse 2761" transform="translate(102.237 -.139)"/><circle id="Ellipse_2762" cx="3.5" cy="3.5" r="3.5" data-name="Ellipse 2762" transform="translate(102.237 24.861)"/><circle id="Ellipse_2763" cx="3.5" cy="3.5" r="3.5" data-name="Ellipse 2763" transform="translate(102.237 49.861)"/><circle id="Ellipse_2764" cx="3.5" cy="3.5" r="3.5" data-name="Ellipse 2764" transform="translate(102.237 75.861)"/><circle id="Ellipse_2765" cx="3.5" cy="3.5" r="3.5" data-name="Ellipse 2765" transform="translate(102.237 125.861)"/><circle id="Ellipse_2766" cx="3.5" cy="3.5" r="3.5" data-name="Ellipse 2766" transform="translate(.237 100.861)"/><circle id="Ellipse_2767" cx="3.5" cy="3.5" r="3.5" data-name="Ellipse 2767" transform="translate(25.237 100.861)"/><circle id="Ellipse_2768" cx="3.5" cy="3.5" r="3.5" data-name="Ellipse 2768" transform="translate(51.237 100.861)"/><circle id="Ellipse_2769" cx="3" cy="3" r="3" data-name="Ellipse 2769" transform="translate(77.237 100.861)"/><ellipse id="Ellipse_2770" cx="2.5" cy="3" data-name="Ellipse 2770" rx="2.5" ry="3" transform="translate(127.237 100.861)"/><circle id="Ellipse_2771" cx="3.5" cy="3.5" r="3.5" data-name="Ellipse 2771" transform="translate(102.237 100.861)"/></g><g id="Group_4132" data-name="Group 4132" transform="translate(151.995 151.995)"><ellipse id="Ellipse_2772" cx="2.5" cy="3" data-name="Ellipse 2772" rx="2.5" ry="3" transform="translate(.242 -.139)"/><circle id="Ellipse_2773" cx="3.5" cy="3.5" r="3.5" data-name="Ellipse 2773" transform="translate(.242 24.861)"/><circle id="Ellipse_2774" cx="3.5" cy="3.5" r="3.5" data-name="Ellipse 2774" transform="translate(.242 49.861)"/><circle id="Ellipse_2775" cx="3.5" cy="3.5" r="3.5" data-name="Ellipse 2775" transform="translate(.242 75.861)"/><circle id="Ellipse_2776" cx="3.5" cy="3.5" r="3.5" data-name="Ellipse 2776" transform="translate(.242 125.861)"/><ellipse id="Ellipse_2777" cx="2.5" cy="3" data-name="Ellipse 2777" rx="2.5" ry="3" transform="translate(25.242 -.139)"/><circle id="Ellipse_2778" cx="3.5" cy="3.5" r="3.5" data-name="Ellipse 2778" transform="translate(25.242 24.861)"/><circle id="Ellipse_2779" cx="3.5" cy="3.5" r="3.5" data-name="Ellipse 2779" transform="translate(25.242 49.861)"/><circle id="Ellipse_2780" cx="3.5" cy="3.5" r="3.5" data-name="Ellipse 2780" transform="translate(25.242 75.861)"/><circle id="Ellipse_2781" cx="3.5" cy="3.5" r="3.5" data-name="Ellipse 2781" transform="translate(25.242 125.861)"/><ellipse id="Ellipse_2782" cx="2.5" cy="3" data-name="Ellipse 2782" rx="2.5" ry="3" transform="translate(50.242 -.139)"/><ellipse id="Ellipse_2783" cx="3" cy="3.5" data-name="Ellipse 2783" rx="3" ry="3.5" transform="translate(50.242 24.861)"/><ellipse id="Ellipse_2784" cx="3" cy="3.5" data-name="Ellipse 2784" rx="3" ry="3.5" transform="translate(50.242 49.861)"/><ellipse id="Ellipse_2785" cx="3" cy="3.5" data-name="Ellipse 2785" rx="3" ry="3.5" transform="translate(50.242 75.861)"/><ellipse id="Ellipse_2786" cx="3" cy="3.5" data-name="Ellipse 2786" rx="3" ry="3.5" transform="translate(50.242 125.861)"/><ellipse id="Ellipse_2787" cx="2.5" cy="3" data-name="Ellipse 2787" rx="2.5" ry="3" transform="translate(76.242 -.139)"/><circle id="Ellipse_2788" cx="3.5" cy="3.5" r="3.5" data-name="Ellipse 2788" transform="translate(76.242 24.861)"/><circle id="Ellipse_2789" cx="3.5" cy="3.5" r="3.5" data-name="Ellipse 2789" transform="translate(76.242 49.861)"/><circle id="Ellipse_2790" cx="3.5" cy="3.5" r="3.5" data-name="Ellipse 2790" transform="translate(76.242 75.861)"/><circle id="Ellipse_2791" cx="3.5" cy="3.5" r="3.5" data-name="Ellipse 2791" transform="translate(76.242 125.861)"/><circle id="Ellipse_2792" cx="3" cy="3" r="3" data-name="Ellipse 2792" transform="translate(125.242 -.139)"/><circle id="Ellipse_2793" cx="3.5" cy="3.5" r="3.5" data-name="Ellipse 2793" transform="translate(125.242 24.861)"/><circle id="Ellipse_2794" cx="3.5" cy="3.5" r="3.5" data-name="Ellipse 2794" transform="translate(125.242 49.861)"/><circle id="Ellipse_2795" cx="3.5" cy="3.5" r="3.5" data-name="Ellipse 2795" transform="translate(125.242 75.861)"/><circle id="Ellipse_2796" cx="3.5" cy="3.5" r="3.5" data-name="Ellipse 2796" transform="translate(125.242 125.861)"/><circle id="Ellipse_2797" cx="3" cy="3" r="3" data-name="Ellipse 2797" transform="translate(102.242 -.139)"/><circle id="Ellipse_2798" cx="3" cy="3" r="3" data-name="Ellipse 2798" transform="translate(102.242 24.861)"/><ellipse id="Ellipse_2799" cx="3" cy="2.5" data-name="Ellipse 2799" rx="3" ry="2.5" transform="translate(102.242 49.861)"/><circle id="Ellipse_2800" cx="3" cy="3" r="3" data-name="Ellipse 2800" transform="translate(102.242 75.861)"/><ellipse id="Ellipse_2801" cx="3" cy="2.5" data-name="Ellipse 2801" rx="3" ry="2.5" transform="translate(102.242 125.861)"/><circle id="Ellipse_2802" cx="3.5" cy="3.5" r="3.5" data-name="Ellipse 2802" transform="translate(.242 100.861)"/><circle id="Ellipse_2803" cx="3.5" cy="3.5" r="3.5" data-name="Ellipse 2803" transform="translate(25.242 100.861)"/><ellipse id="Ellipse_2804" cx="3" cy="3.5" data-name="Ellipse 2804" rx="3" ry="3.5" transform="translate(50.242 100.861)"/><circle id="Ellipse_2805" cx="3.5" cy="3.5" r="3.5" data-name="Ellipse 2805" transform="translate(76.242 100.861)"/><circle id="Ellipse_2806" cx="3.5" cy="3.5" r="3.5" data-name="Ellipse 2806" transform="translate(125.242 100.861)"/><circle id="Ellipse_2807" cx="3" cy="3" r="3" data-name="Ellipse 2807" transform="translate(102.242 100.861)"/></g></g></g></svg>